<?xml version="1.0" standalone="no"?>
<!DOCTYPE svg PUBLIC "-//W3C//DTD SVG 20010904//EN"
 "http://www.w3.org/TR/2001/REC-SVG-20010904/DTD/svg10.dtd">
<svg version="1.0" xmlns="http://www.w3.org/2000/svg"
 width="3000.000000pt" height="2869.000000pt" viewBox="0 0 3000.000000 2869.000000"
 preserveAspectRatio="xMidYMid meet">

<g transform="translate(0.000000,2869.000000) scale(0.100000,-0.100000)"
fill="#000000" stroke="none">
<path d="M14441 28679 c-1697 -60 -3553 -449 -5347 -1119 -451 -169 -899 -357
-1254 -527 l-146 -69 -60 26 c-134 60 -545 224 -787 314 -730 273 -1347 446
-1837 517 -201 29 -502 32 -625 5 -107 -22 -234 -85 -278 -136 -141 -165 -196
-528 -176 -1150 18 -560 76 -1092 275 -2550 184 -1349 235 -1807 252 -2285 5
-121 7 -269 5 -330 l-4 -110 65 140 c364 771 911 1451 1601 1990 132 103 469
329 615 413 500 285 1091 505 1655 616 700 137 1418 136 2120 -5 1312 -262
2482 -1004 3289 -2082 380 -509 681 -1114 857 -1720 23 -81 45 -144 49 -140 4
4 15 40 25 78 29 111 122 387 181 538 607 1533 1898 2722 3472 3198 1004 304
2063 313 3067 29 742 -211 1406 -563 2016 -1071 160 -133 525 -498 658 -658
253 -304 449 -594 638 -944 l80 -147 6 130 c24 470 113 1054 417 2727 293
1611 382 2245 397 2823 14 550 -55 811 -239 903 -103 51 -165 62 -373 61 -209
0 -313 -13 -580 -70 -551 -117 -1282 -370 -2170 -749 -243 -104 -648 -286
-736 -331 -27 -13 -55 -24 -63 -24 -9 0 -48 20 -88 44 -206 124 -653 352 -953
486 -1894 845 -3972 1252 -6024 1179z"/>
<path d="M9955 21649 c-325 -34 -685 -163 -955 -344 -628 -419 -984 -1112
-957 -1860 7 -178 24 -296 66 -461 202 -775 825 -1376 1603 -1548 170 -37 286
-49 468 -49 344 1 627 67 935 218 240 117 410 241 594 430 175 181 293 351
399 575 120 251 184 500 201 780 55 862 -416 1671 -1194 2050 -360 176 -769
250 -1160 209z m-821 -1009 c78 -30 166 -113 206 -194 96 -194 10 -432 -189
-525 -49 -23 -68 -26 -161 -26 -93 0 -111 3 -163 27 -70 33 -155 116 -185 181
-71 153 -47 316 65 437 112 121 270 158 427 100z"/>
<path d="M21171 21649 c-573 -64 -1094 -352 -1450 -799 -187 -235 -330 -526
-406 -829 -50 -197 -70 -533 -45 -741 57 -472 256 -894 582 -1235 339 -355
790 -581 1288 -646 122 -16 388 -16 510 0 1081 140 1880 1041 1880 2121 0 565
-212 1086 -604 1489 -61 62 -144 140 -185 173 -289 233 -626 385 -996 449
-139 24 -440 33 -574 18z m-835 -1005 c101 -32 200 -131 240 -237 27 -73 25
-193 -5 -270 -63 -161 -208 -254 -384 -245 -147 8 -265 85 -330 217 -30 61
-32 73 -32 166 0 91 3 106 31 165 88 185 284 268 480 204z"/>
<path d="M4111 18012 c-1 -8 -23 -192 -51 -410 -134 -1077 -224 -1923 -285
-2676 l-15 -190 -108 -110 c-1171 -1200 -2620 -3963 -3277 -6246 -236 -820
-355 -1487 -371 -2090 -21 -744 138 -1283 472 -1600 88 -83 199 -161 257 -180
99 -31 235 7 371 104 339 242 835 949 1315 1876 55 107 101 188 101 179 0 -46
43 -472 65 -649 142 -1138 388 -1848 691 -1996 280 -137 611 157 951 846 200
405 417 981 593 1570 33 113 62 209 63 214 4 11 57 -86 240 -440 369 -713 670
-1175 947 -1454 176 -177 306 -250 445 -250 66 0 82 4 150 39 400 207 677 687
794 1376 56 323 76 644 68 1075 -8 419 -33 739 -93 1179 l-26 192 73 132 c296
542 664 1065 1080 1531 115 129 134 147 143 131 195 -329 394 -500 663 -567
126 -32 441 -32 618 1 636 116 1423 464 2437 1078 414 250 959 610 1411 932
148 105 272 191 276 191 4 0 29 -23 56 -51 114 -117 284 -222 451 -278 126
-42 247 -61 394 -61 316 0 576 98 815 306 40 35 76 64 79 64 3 0 77 -51 163
-113 883 -633 1710 -1149 2418 -1507 513 -260 925 -423 1296 -515 237 -58 332
-70 554 -69 182 1 209 3 296 26 168 45 291 120 421 256 42 44 89 99 104 121
26 40 28 41 47 24 11 -10 78 -88 149 -173 341 -406 671 -894 924 -1362 l65
-120 -12 -292 c-13 -317 -7 -934 11 -1206 52 -791 180 -1447 365 -1875 217
-502 447 -783 771 -943 181 -90 259 -97 380 -37 292 144 639 755 994 1750 43
121 104 301 135 400 31 99 58 182 61 184 2 2 15 -22 30 -55 251 -572 573
-1174 849 -1589 322 -483 590 -740 834 -801 338 -84 555 317 636 1176 35 382
39 1041 9 1510 l-6 95 29 -40 c16 -22 88 -121 159 -220 504 -703 1027 -1277
1378 -1514 213 -144 383 -186 506 -124 72 36 209 174 283 284 355 534 325
1426 -88 2638 -594 1742 -1980 4032 -3429 5666 -181 204 -634 661 -773 779
l-91 79 -6 81 c-3 44 -10 205 -16 356 -25 646 -90 1556 -181 2538 l-23 240
-41 -121 c-199 -575 -499 -1120 -880 -1597 -560 -701 -1266 -1245 -2080 -1602
-166 -73 -496 -195 -540 -200 -25 -3 -30 1 -38 32 -30 109 -111 342 -152 436
-156 359 -365 601 -602 697 -416 169 -1081 56 -1993 -340 -238 -104 -688 -325
-948 -467 l-192 -105 -83 38 c-113 53 -346 182 -502 278 -559 348 -1077 824
-1477 1357 -49 66 -93 126 -98 135 -5 9 -10 14 -13 11 -2 -3 -69 -133 -149
-290 -221 -432 -537 -1020 -548 -1020 -13 1 -558 821 -722 1085 -75 121 -142
228 -150 238 -12 15 -25 1 -134 -145 -453 -608 -1001 -1095 -1654 -1472 l-115
-66 -305 153 c-341 172 -501 245 -766 353 -843 342 -1470 421 -1847 233 -309
-154 -559 -559 -712 -1154 -40 -154 -8 -144 -270 -80 -608 149 -1202 413
-1729 768 -480 323 -925 742 -1277 1202 -476 623 -812 1338 -985 2095 -18 80
-33 139 -33 132z"/>
<path d="M11394 9566 c-28 -28 -34 -41 -34 -77 0 -40 5 -48 68 -109 88 -86
255 -210 389 -290 540 -322 1026 -317 1416 15 110 93 274 298 290 363 8 35
-11 89 -40 112 -28 22 -91 27 -123 10 -11 -6 -52 -54 -91 -107 -92 -124 -144
-180 -233 -247 -218 -168 -488 -201 -794 -99 -201 67 -459 223 -643 390 -67
62 -88 73 -134 73 -29 0 -45 -8 -71 -34z"/>
<path d="M15511 9586 c-32 -18 -50 -53 -51 -98 0 -45 33 -85 152 -184 251
-210 573 -376 833 -429 445 -91 849 89 1126 503 52 78 60 116 37 167 -21 47
-100 71 -148 45 -11 -6 -52 -54 -91 -108 -206 -278 -420 -402 -696 -402 -220
0 -455 81 -703 241 -101 65 -248 179 -290 224 -49 53 -117 70 -169 41z"/>
<path d="M9471 8076 c-32 -18 -50 -53 -51 -98 0 -45 33 -85 152 -184 251 -210
574 -376 833 -429 445 -91 848 89 1126 503 52 78 60 116 37 167 -21 47 -100
71 -148 45 -11 -6 -51 -54 -91 -106 -209 -283 -419 -403 -702 -404 -157 0
-312 39 -492 125 -154 74 -350 207 -475 321 -30 28 -65 56 -77 62 -29 16 -82
15 -112 -2z"/>
<path d="M13551 8059 c-25 -24 -31 -39 -31 -72 1 -55 12 -72 90 -142 266 -238
608 -421 895 -480 444 -91 843 89 1129 508 49 72 57 112 34 162 -22 49 -104
71 -155 42 -12 -7 -50 -52 -85 -101 -118 -167 -279 -305 -415 -356 -289 -109
-633 -40 -993 197 -94 62 -152 107 -307 236 -36 30 -53 37 -88 37 -35 0 -49
-6 -74 -31z"/>
<path d="M17657 8070 c-30 -24 -47 -75 -39 -116 7 -37 85 -112 232 -223 742
-560 1434 -511 1876 133 68 100 72 140 20 192 -27 27 -42 34 -72 34 -56 -1
-76 -16 -135 -100 -74 -106 -239 -268 -324 -318 -199 -117 -442 -134 -700 -51
-199 65 -423 197 -634 374 -104 87 -117 95 -156 95 -27 0 -51 -7 -68 -20z"/>
<path d="M11656 7010 c-65 -20 -97 -84 -72 -145 37 -89 362 -329 601 -446 228
-110 397 -153 610 -152 117 0 155 4 236 26 105 27 224 82 322 148 161 109 387
378 387 461 0 76 -74 129 -146 105 -30 -10 -51 -31 -105 -106 -275 -383 -604
-494 -1036 -350 -183 61 -420 201 -598 354 -128 110 -146 120 -199 105z"/>
<path d="M15550 7013 c-62 -20 -90 -57 -90 -117 0 -46 38 -89 174 -199 400
-322 833 -477 1181 -424 250 39 475 170 653 382 112 133 152 199 152 250 0 53
-28 91 -77 104 -56 16 -103 -9 -149 -77 -139 -212 -332 -367 -519 -417 -93
-26 -264 -30 -368 -11 -258 49 -561 213 -821 445 -38 33 -75 61 -82 61 -7 0
-18 2 -26 4 -7 3 -20 2 -28 -1z"/>
</g>
</svg>
